<svg width="52" height="52" viewBox="0 0 52 52" fill="none" xmlns="http://www.w3.org/2000/svg">
<path opacity="0.45" d="M47.258 21.0868L46.2243 22.1405L49.201 25.1749H41.9971C41.7472 18.1946 37.9965 11.1656 30.8181 4.26996C30.6182 4.07923 30.4614 3.9282 30.3556 3.8204C29.8884 3.34477 29.8757 2.73055 29.8629 2.07841C29.8472 1.35224 29.8187 0 28.2708 0C27.5183 0 26.8786 0.510571 26.5177 1.40022C26.3085 1.91494 26.2057 2.54812 26.1952 3.2192L8.8158 22.2501H0L3.32249 25.9206L0.00174332 29.5924H8.81639L26.1958 48.6233C26.2057 49.2938 26.3091 49.9275 26.5183 50.4422C26.8797 51.3313 27.5189 51.8425 28.2714 51.8425C29.8187 51.8425 29.8478 50.4902 29.8634 49.7629C29.8762 49.1125 29.889 48.4965 30.3562 48.0221C30.4619 47.9143 30.6188 47.7644 30.8175 47.5725C37.9965 40.6763 41.7467 33.6455 41.9971 26.6658H49.2016L46.2249 29.7002L47.2586 30.7539L52 25.9206L47.258 21.0868ZM27.8681 1.97061C27.9582 1.74909 28.118 1.49025 28.3417 1.44346C28.3876 1.53645 28.3957 1.88177 28.4003 2.11158C28.416 2.85375 28.4404 3.97617 29.3213 4.87411C29.434 4.98902 29.6014 5.15072 29.8141 5.35448C36.6839 11.9534 40.2807 18.6169 40.5346 25.1755H39.3045C38.921 16.4632 31.9994 9.6037 29.3399 6.97859L28.7873 6.42833C27.5439 5.16079 27.4555 2.98761 27.8681 1.97061ZM12.3085 25.1749L10.1505 22.9763L26.4439 5.13414C26.6903 6.00009 27.1145 6.83051 27.7536 7.48205L28.3219 8.0483C30.8582 10.552 37.4497 17.084 37.8419 25.1755H12.3085V25.1749ZM37.8419 26.6658C37.4503 34.7591 30.8582 41.2905 28.3219 43.7942L27.7536 44.3604C27.1145 45.012 26.6909 45.8424 26.4439 46.7083L10.1505 28.865L12.3085 26.6652H37.8419V26.6658ZM3.33818 23.7404H8.83207L10.9721 25.9206L8.83207 28.1021H3.33643L5.3097 25.9206L3.33818 23.7404ZM29.8141 46.488C29.6014 46.6917 29.434 46.8535 29.3213 46.9684C28.4404 47.8663 28.416 48.9887 28.4003 49.7309C28.3963 49.9595 28.3876 50.306 28.4073 50.338C28.4073 50.338 28.369 50.3528 28.2702 50.3528C28.1174 50.3528 27.9576 50.094 27.8675 49.8725C27.455 48.8555 27.5433 46.6823 28.7868 45.4147L29.3393 44.8645C31.9988 42.24 38.921 35.3804 39.3045 26.6664H40.534C40.2807 33.2238 36.6839 39.8891 29.8141 46.488Z" fill="#FEFFD3"/>
</svg>
