<svg width="15" height="15" viewBox="0 0 15 15" fill="none" xmlns="http://www.w3.org/2000/svg">
<path d="M6.34308 12.6862C7.43266 12.6872 8.50388 12.4057 9.45216 11.8691L12.0828 14.4995C12.4033 14.82 12.8379 15 13.2911 15C13.7444 15 14.179 14.82 14.4995 14.4995C14.82 14.1791 15 13.7445 15 13.2913C15 12.8381 14.82 12.4035 14.4995 12.0831L11.8688 9.45263C12.6211 8.11716 12.8642 6.55442 12.553 5.05359C12.2418 3.55276 11.3975 2.21544 10.1762 1.28909C8.95498 0.362735 7.4395 -0.0899351 5.91021 0.0148401C4.38092 0.119615 2.94135 0.774744 1.85788 1.859C0.970775 2.74599 0.366645 3.87611 0.121889 5.10643C-0.122867 6.33675 0.00274393 7.61202 0.482837 8.77096C0.962931 9.92989 1.77594 10.9204 2.81906 11.6174C3.86218 12.3143 5.08854 12.6862 6.34308 12.6862ZM2.97425 2.97527C3.7536 2.19634 4.77894 1.71169 5.87558 1.60391C6.97221 1.49614 8.0723 1.77188 8.98841 2.38418C9.90452 2.99648 10.58 3.90744 10.8997 4.96187C11.2194 6.0163 11.1636 7.14896 10.7418 8.16686C10.32 9.18477 9.55832 10.025 8.58647 10.5443C7.61462 11.0636 6.49276 11.2299 5.41202 11.0149C4.33129 10.7999 3.35854 10.2169 2.6595 9.36512C1.96047 8.51338 1.5784 7.44564 1.57839 6.34381C1.57648 5.71789 1.69888 5.09783 1.9385 4.51958C2.17811 3.94133 2.53017 3.41641 2.97425 2.97527Z" fill="#FEFFD3"/>
</svg>
